<?xml version="1.0" encoding="utf-8"?>
<!-- Generator: Adobe Illustrator 16.0.0, SVG Export Plug-In . SVG Version: 6.00 Build 0)  -->
<!DOCTYPE svg PUBLIC "-//W3C//DTD SVG 1.1//EN" "http://www.w3.org/Graphics/SVG/1.1/DTD/svg11.dtd">
<svg version="1.1" id="Layer_1" xmlns="http://www.w3.org/2000/svg" xmlns:xlink="http://www.w3.org/1999/xlink" x="0px" y="0px"
	 width="45.167px" height="45.167px" viewBox="0 0 45.167 45.167" enable-background="new 0 0 45.167 45.167" xml:space="preserve">
<g>
	<path fill-rule="evenodd" clip-rule="evenodd" fill="#1C4075" d="M22.45,42.469C11.67,42.454,2.977,33.743,3,22.982
		C3.024,12.23,11.707,3.565,22.461,3.563c10.771-0.003,19.5,8.711,19.488,19.457C41.938,33.784,33.215,42.483,22.45,42.469z
		 M22.212,29.931c3.329-4.52,6.625-8.996,9.977-13.55c-6.591,0-13.079,0-19.697,0C15.753,20.926,18.957,25.394,22.212,29.931z"/>
	<path fill-rule="evenodd" clip-rule="evenodd" fill="#FFFFFF" d="M12.492,16.381c3.261,4.545,6.465,9.013,9.72,13.55
		c3.329-4.52,6.625-8.996,9.977-13.55C25.598,16.381,19.11,16.381,12.492,16.381z"/>
</g>
</svg>
