<svg xmlns="http://www.w3.org/2000/svg" width="41" height="34"  xmlns:v="https://vecta.io/nano"><path fill="#e3e7ee" d="M13.874.046a1.48 1.48 0 0 1 1.084.458 1.48 1.48 0 0 1 .458 1.084V4.67a1.48 1.48 0 0 1-.458 1.084 1.482 1.482 0 0 1-1.084.458h-1.541a5.94 5.94 0 0 0-4.36 1.806c-1.205 1.205-1.807 2.658-1.807 4.36v.77c0 .643.225 1.189.674 1.639a2.23 2.23 0 0 0 1.639.674h5.395c1.285 0 2.377.45 3.276 1.349s1.35 1.99 1.35 3.276v9.249c0 1.285-.45 2.377-1.35 3.276a4.45 4.45 0 0 1-3.275 1.349h-9.25c-1.285 0-2.377-.45-3.276-1.349S0 30.621 0 29.335V12.379c0-1.67.325-3.264.976-4.782s1.529-2.83 2.637-3.938 2.42-1.987 3.938-2.637a12.018 12.018 0 0 1 4.782-.976zm21.584 0a1.48 1.48 0 0 1 1.083.458 1.48 1.48 0 0 1 .458 1.084V4.67a1.48 1.48 0 0 1-.458 1.084 1.482 1.482 0 0 1-1.083.458h-1.542c-1.703 0-3.156.602-4.36 1.806a5.94 5.94 0 0 0-1.806 4.36v.77a2.23 2.23 0 0 0 .674 1.639 2.23 2.23 0 0 0 1.638.674h5.395c1.285 0 2.377.45 3.276 1.349s1.348 1.99 1.348 3.276v9.249c0 1.285-.449 2.377-1.348 3.276s-1.991 1.349-3.276 1.349h-9.25c-1.284 0-2.376-.45-3.275-1.349s-1.35-1.99-1.35-3.276V12.379c0-1.67.326-3.264.977-4.782a12.44 12.44 0 0 1 2.637-3.938c1.109-1.108 2.42-1.987 3.938-2.637a12.021 12.021 0 0 1 4.782-.976z"/></svg>